<?xml version="1.0" encoding="UTF-8"?>
<svg version="1.1" xmlns="http://www.w3.org/2000/svg" width="512" height="512">
<path d="M0 0 C24.09 0 48.18 0 73 0 C73 5.61 73 11.22 73 17 C90.49 17 107.98 17 126 17 C126 22.61 126 28.22 126 34 C137.55 34 149.1 34 161 34 C161 39.94 161 45.88 161 52 C172.55 52 184.1 52 196 52 C196 57.94 196 63.88 196 70 C201.94 70 207.88 70 214 70 C214 75.61 214 81.22 214 87 C219.54973121 86.96042519 219.54973121 86.96042519 225.09936523 86.90991211 C227.06645974 86.90276909 229.03353621 86.94968107 231 87 C232 88 232 88 232.09765625 91.81640625 C232.09191138 93.39847047 232.07889593 94.98051031 232.0625 96.5625 C232.041875 99.346875 232.02125 102.13125 232 105 C237.61 105 243.22 105 249 105 C249 110.94 249 116.88 249 123 C254.61 123 260.22 123 266 123 C266 135.21 266 147.42 266 160 C260.39 160 254.78 160 249 160 C249 165.94 249 171.88 249 178 C243.39 178 237.78 178 232 178 C232.03957481 183.54973121 232.03957481 183.54973121 232.09008789 189.09936523 C232.09723091 191.06645974 232.05031893 193.03353621 232 195 C231.67 195.33 231.34 195.66 231 196 C225.72 196 220.44 196 215 196 C214.67 206.56 214.34 217.12 214 228 C225.55 228 237.1 228 249 228 C249 233.94 249 239.88 249 246 C254.61 246 260.22 246 266 246 C266 293.19 266 340.38 266 389 C260.39 389 254.78 389 249 389 C249 400.88 249 412.76 249 425 C243.39 425 237.78 425 232 425 C232 430.61 232 436.22 232 442 C226.06 442 220.12 442 214 442 C214 447.61 214 453.22 214 459 C178.36 459 142.72 459 106 459 C106 453.39 106 447.78 106 442 C95.11 442 84.22 442 73 442 C73 447.61 73 453.22 73 459 C37.36 459 1.72 459 -35 459 C-35 453.39 -35 447.78 -35 442 C-40.61 442 -46.22 442 -52 442 C-52 435.73 -52 429.46 -52 423 C-46.39 423 -40.78 423 -35 423 C-35 370.2 -35 317.4 -35 263 C-29.39 263 -23.78 263 -18 263 C-18 257.39 -18 251.78 -18 246 C-12.06 246 -6.12 246 0 246 C0 240.06 0 234.12 0 228 C5.94 228 11.88 228 18 228 C18 223.05 18 218.1 18 213 C12.06 213 6.12 213 0 213 C0 201.45 0 189.9 0 178 C-5.61 178 -11.22 178 -17 178 C-18 177 -18 177 -18.12025452 174.22227478 C-18.11803391 172.98095291 -18.11581329 171.73963104 -18.11352539 170.46069336 C-18.11367142 169.77779739 -18.11381744 169.09490143 -18.1139679 168.39131165 C-18.11326876 166.12412386 -18.1054764 163.85701726 -18.09765625 161.58984375 C-18.09579207 160.02185613 -18.09436817 158.45386793 -18.09336853 156.88587952 C-18.08954334 152.75123497 -18.07971306 148.61662534 -18.06866455 144.48199463 C-18.05845044 140.26599602 -18.05387091 136.04999178 -18.04882812 131.83398438 C-18.03809078 123.55597174 -18.02049399 115.27799423 -18 107 C-23.61 107 -29.22 107 -35 107 C-35 82.91 -35 58.82 -35 34 C-29.39 34 -23.78 34 -18 34 C-18 28.39 -18 22.78 -18 17 C-12.06 17 -6.12 17 0 17 C0 11.39 0 5.78 0 0 Z " fill="#FCFCFC" transform="translate(159,19)"/>
<path d="M0 0 C24.09 0 48.18 0 73 0 C73 5.61 73 11.22 73 17 C90.49 17 107.98 17 126 17 C126 22.61 126 28.22 126 34 C137.55 34 149.1 34 161 34 C161 39.94 161 45.88 161 52 C172.55 52 184.1 52 196 52 C196 57.94 196 63.88 196 70 C201.94 70 207.88 70 214 70 C214 75.61 214 81.22 214 87 C219.54973121 86.96042519 219.54973121 86.96042519 225.09936523 86.90991211 C227.06645974 86.90276909 229.03353621 86.94968107 231 87 C232 88 232 88 232.09765625 91.81640625 C232.09191138 93.39847047 232.07889593 94.98051031 232.0625 96.5625 C232.041875 99.346875 232.02125 102.13125 232 105 C237.61 105 243.22 105 249 105 C249 110.94 249 116.88 249 123 C254.61 123 260.22 123 266 123 C266 135.21 266 147.42 266 160 C260.39 160 254.78 160 249 160 C249 165.94 249 171.88 249 178 C243.39 178 237.78 178 232 178 C232.03957481 183.54973121 232.03957481 183.54973121 232.09008789 189.09936523 C232.09723091 191.06645974 232.05031893 193.03353621 232 195 C231.67 195.33 231.34 195.66 231 196 C225.72 196 220.44 196 215 196 C214.67 206.56 214.34 217.12 214 228 C225.55 228 237.1 228 249 228 C249 233.94 249 239.88 249 246 C254.61 246 260.22 246 266 246 C266 293.19 266 340.38 266 389 C260.39 389 254.78 389 249 389 C249 400.88 249 412.76 249 425 C243.39 425 237.78 425 232 425 C232 430.61 232 436.22 232 442 C226.06 442 220.12 442 214 442 C214 447.61 214 453.22 214 459 C178.36 459 142.72 459 106 459 C106 453.39 106 447.78 106 442 C95.11 442 84.22 442 73 442 C73 447.61 73 453.22 73 459 C37.36 459 1.72 459 -35 459 C-35 453.39 -35 447.78 -35 442 C-40.61 442 -46.22 442 -52 442 C-52 435.73 -52 429.46 -52 423 C-46.39 423 -40.78 423 -35 423 C-35 370.2 -35 317.4 -35 263 C-29.39 263 -23.78 263 -18 263 C-18 257.39 -18 251.78 -18 246 C-12.06 246 -6.12 246 0 246 C0 240.06 0 234.12 0 228 C5.94 228 11.88 228 18 228 C18 223.05 18 218.1 18 213 C12.06 213 6.12 213 0 213 C0 201.45 0 189.9 0 178 C-5.61 178 -11.22 178 -17 178 C-18 177 -18 177 -18.12025452 174.22227478 C-18.11803391 172.98095291 -18.11581329 171.73963104 -18.11352539 170.46069336 C-18.11367142 169.77779739 -18.11381744 169.09490143 -18.1139679 168.39131165 C-18.11326876 166.12412386 -18.1054764 163.85701726 -18.09765625 161.58984375 C-18.09579207 160.02185613 -18.09436817 158.45386793 -18.09336853 156.88587952 C-18.08954334 152.75123497 -18.07971306 148.61662534 -18.06866455 144.48199463 C-18.05845044 140.26599602 -18.05387091 136.04999178 -18.04882812 131.83398438 C-18.03809078 123.55597174 -18.02049399 115.27799423 -18 107 C-23.61 107 -29.22 107 -35 107 C-35 82.91 -35 58.82 -35 34 C-29.39 34 -23.78 34 -18 34 C-18 28.39 -18 22.78 -18 17 C-12.06 17 -6.12 17 0 17 C0 11.39 0 5.78 0 0 Z M1 18 C1 23.61 1 29.22 1 35 C-4.94 35 -10.88 35 -17 35 C-17 58.43 -17 81.86 -17 106 C-11.06 106 -5.12 106 1 106 C1 129.1 1 152.2 1 176 C6.94 176 12.88 176 19 176 C19 187.88 19 199.76 19 212 C24.61 212 30.22 212 36 212 C36 217.61 36 223.22 36 229 C30.06 229 24.12 229 18 229 C18 234.94 18 240.88 18 247 C12.39 247 6.78 247 1 247 C1 252.94 1 258.88 1 265 C-4.94 265 -10.88 265 -17 265 C-17 311.53 -17 358.06 -17 406 C-11.06 406 -5.12 406 1 406 C1 411.94 1 417.88 1 424 C6.94 424 12.88 424 19 424 C19 412.45 19 400.9 19 389 C24.61 389 30.22 389 36 389 C36 394.61 36 400.22 36 406 C41.94 406 47.88 406 54 406 C54 411.94 54 417.88 54 424 C71.49 424 88.98 424 107 424 C107 429.61 107 435.22 107 441 C141.98 441 176.96 441 213 441 C213 435.39 213 429.78 213 424 C218.94 424 224.88 424 231 424 C231 412.12 231 400.24 231 388 C236.61 388 242.22 388 248 388 C248 341.47 248 294.94 248 247 C236.45 247 224.9 247 213 247 C213 241.39 213 235.78 213 230 C201.45 229.67 189.9 229.34 178 229 C177.67 211.84 177.34 194.68 177 177 C171.72 177 166.44 177 161 177 C161 188.55 161 200.1 161 212 C154.73 212 148.46 212 142 212 C142 200.45 142 188.9 142 177 C136.06 177 130.12 177 124 177 C124 171.06 124 165.12 124 159 C118.39 159 112.78 159 107 159 C107 164.94 107 170.88 107 177 C101.39 177 95.78 177 90 177 C90 194.16 90 211.32 90 229 C101.55 229 113.1 229 125 229 C125 234.94 125 240.88 125 247 C142.49 247 159.98 247 178 247 C178 252.94 178 258.88 178 265 C183.61 265 189.22 265 195 265 C195 311.53 195 358.06 195 406 C189.39 406 183.78 406 178 406 C178 394.45 178 382.9 178 371 C172.06 371 166.12 371 160 371 C160 376.61 160 382.22 160 388 C154.06 388 148.12 388 142 388 C142 382.06 142 376.12 142 370 C147.94 370 153.88 370 160 370 C160 352.84 160 335.68 160 318 C154.06 318 148.12 318 142 318 C142 312.06 142 306.12 142 300 C136.39 300 130.78 300 125 300 C125 294.39 125 288.78 125 283 C136.55 283 148.1 283 160 283 C160 277.06 160 271.12 160 265 C125.02 265 90.04 265 54 265 C54 259.06 54 253.12 54 247 C65.55 247 77.1 247 89 247 C89 241.39 89 235.78 89 230 C83.39 230 77.78 230 72 230 C72 218.12 72 206.24 72 194 C66.06 194 60.12 194 54 194 C54 182.45 54 170.9 54 159 C59.94 159 65.88 159 72 159 C72 153.39 72 147.78 72 142 C77.61 142 83.22 142 89 142 C89 147.61 89 153.22 89 159 C89.33 159 89.66 159 90 159 C90 147.45 90 135.9 90 124 C124.65 124 159.3 124 195 124 C195 123.67 195 123.34 195 123 C166.29 123 137.58 123 108 123 C108 117.72 108 112.44 108 107 C142.32 107 176.64 107 212 107 C212 112.61 212 118.22 212 124 C217.94 124 223.88 124 230 124 C230 135.22 230 146.44 230 158 C224.39 158 218.78 158 213 158 C213 163.94 213 169.88 213 176 C218.94 176 224.88 176 231 176 C231 170.39 231 164.78 231 159 C236.94 159 242.88 159 249 159 C249 147.12 249 135.24 249 123 C243.06 123 237.12 123 231 123 C231 117.39 231 111.78 231 106 C225.06 106 219.12 106 213 106 C213 100.06 213 94.12 213 88 C207.06 88 201.12 88 195 88 C195 82.39 195 76.78 195 71 C183.45 71 171.9 71 160 71 C160 65.06 160 59.12 160 53 C148.45 53 136.9 53 125 53 C125 47.06 125 41.12 125 35 C107.18 35 89.36 35 71 35 C71 29.39 71 23.78 71 18 C47.9 18 24.8 18 1 18 Z " fill="#020000" transform="translate(159,19)"/>
<path d="M0 0 C5.61 0 11.22 0 17 0 C17 5.94 17 11.88 17 18 C22.94 18 28.88 18 35 18 C35 29.55 35 41.1 35 53 C41.27 53 47.54 53 54 53 C54 41.45 54 29.9 54 18 C59.28 18 64.56 18 70 18 C70.33 35.16 70.66 52.32 71 70 C88.325 70.495 88.325 70.495 106 71 C106 76.61 106 82.22 106 88 C117.55 88 129.1 88 141 88 C141 134.53 141 181.06 141 229 C135.39 229 129.78 229 124 229 C124 240.88 124 252.76 124 265 C118.06 265 112.12 265 106 265 C106 270.61 106 276.22 106 282 C71.02 282 36.04 282 0 282 C0 276.39 0 270.78 0 265 C-11.55 265 -23.1 265 -35 265 C-35 247.51 -35 230.02 -35 212 C-29.39 212 -23.78 212 -18 212 C-18 217.94 -18 223.88 -18 230 C-6.12 230 5.76 230 18 230 C18 218.12 18 206.24 18 194 C12.06 194 6.12 194 0 194 C0 188.39 0 182.78 0 177 C17.49 177 34.98 177 53 177 C53 188.22 53 199.44 53 211 C47.06 211 41.12 211 35 211 C35 216.94 35 222.88 35 229 C40.94 229 46.88 229 53 229 C53 223.39 53 217.78 53 212 C58.94 212 64.88 212 71 212 C71 223.55 71 235.1 71 247 C76.61 247 82.22 247 88 247 C88 200.47 88 153.94 88 106 C82.39 106 76.78 106 71 106 C71 100.06 71 94.12 71 88 C53.51 88 36.02 88 18 88 C18 82.06 18 76.12 18 70 C6.45 70 -5.1 70 -17 70 C-17 52.84 -17 35.68 -17 18 C-11.39 18 -5.78 18 0 18 C0 12.06 0 6.12 0 0 Z " fill="#FC4901" transform="translate(266,178)"/>
<path d="M0 0 C34.32 0 68.64 0 104 0 C104 5.61 104 11.22 104 17 C109.94 17 115.88 17 122 17 C122 28.22 122 39.44 122 51 C116.39 51 110.78 51 105 51 C105 56.94 105 62.88 105 69 C110.94 69 116.88 69 123 69 C123 69.33 123 69.66 123 70 C117.06 70 111.12 70 105 70 C105 75.61 105 81.22 105 87 C98.73 87 92.46 87 86 87 C86 81.39 86 75.78 86 70 C81.05 70 76.1 70 71 70 C71 87.16 71 104.32 71 122 C82.55 122 94.1 122 106 122 C106 127.61 106 133.22 106 139 C111.61 139 117.22 139 123 139 C123 139.33 123 139.66 123 140 C117.06 140 111.12 140 105 140 C105 134.39 105 128.78 105 123 C102.48503906 123.01160156 99.97007812 123.02320313 97.37890625 123.03515625 C94.9530449 123.04294673 92.52718493 123.04902354 90.10131836 123.05493164 C88.41055684 123.0599719 86.71979971 123.06680405 85.02905273 123.07543945 C82.60399293 123.08751857 80.17899056 123.09323123 77.75390625 123.09765625 C76.61327477 123.10539818 76.61327477 123.10539818 75.44960022 123.11329651 C73.6326743 123.11349238 71.81586873 123.06197277 70 123 C69 122 69 122 68.87974548 119.90562439 C68.88196609 118.98407059 68.88418671 118.06251678 68.88647461 117.11303711 C68.88658791 115.55153175 68.88658791 115.55153175 68.88670349 113.95848083 C68.89186478 112.8262056 68.89702606 111.69393036 68.90234375 110.52734375 C68.9037587 109.37456436 68.90517365 108.22178497 68.90663147 107.03407288 C68.91224995 103.33518936 68.92480558 99.63636536 68.9375 95.9375 C68.94251262 93.43684983 68.94707594 90.93619871 68.95117188 88.43554688 C68.96222538 82.29034149 68.9795024 76.14518085 69 70 C63.72 70 58.44 70 53 70 C53 81.55 53 93.1 53 105 C46.73 105 40.46 105 34 105 C34 93.45 34 81.9 34 70 C28.06 70 22.12 70 16 70 C16 64.06 16 58.12 16 52 C10.39 52 4.78 52 -1 52 C-1 57.94 -1 63.88 -1 70 C-6.61 70 -12.22 70 -18 70 C-18 87.16 -18 104.32 -18 122 C-6.45 122 5.1 122 17 122 C17 127.94 17 133.88 17 140 C34.49 140 51.98 140 70 140 C70 145.94 70 151.88 70 158 C75.61 158 81.22 158 87 158 C87 204.53 87 251.06 87 299 C81.39 299 75.78 299 70 299 C70 287.45 70 275.9 70 264 C64.06 264 58.12 264 52 264 C52 269.61 52 275.22 52 281 C46.06 281 40.12 281 34 281 C34 275.06 34 269.12 34 263 C39.94 263 45.88 263 52 263 C52 245.84 52 228.68 52 211 C46.06 211 40.12 211 34 211 C34 205.06 34 199.12 34 193 C28.39 193 22.78 193 17 193 C17 187.39 17 181.78 17 176 C28.55 176 40.1 176 52 176 C52 170.06 52 164.12 52 158 C17.02 158 -17.96 158 -54 158 C-54 152.06 -54 146.12 -54 140 C-42.45 140 -30.9 140 -19 140 C-19 134.39 -19 128.78 -19 123 C-24.61 123 -30.22 123 -36 123 C-36 111.12 -36 99.24 -36 87 C-41.94 87 -47.88 87 -54 87 C-54 75.45 -54 63.9 -54 52 C-48.06 52 -42.12 52 -36 52 C-36 46.39 -36 40.78 -36 35 C-30.39 35 -24.78 35 -19 35 C-18.67 29.06 -18.34 23.12 -18 17 C-12.06 16.67 -6.12 16.34 0 16 C0 10.72 0 5.44 0 0 Z " fill="#FC4900" transform="translate(267,126)"/>
<path d="M0 0 C5.61 0 11.22 0 17 0 C17 5.61 17 11.22 17 17 C22.94 17 28.88 17 35 17 C35 22.61 35 28.22 35 34 C29.06 34 23.12 34 17 34 C17 45.88 17 57.76 17 70 C23.27 70 29.54 70 36 70 C36 58.45 36 46.9 36 35 C41.61 35 47.22 35 53 35 C53 29.06 53 23.12 53 17 C87.98 17 122.96 17 159 17 C159 22.94 159 28.88 159 35 C147.45 35 135.9 35 124 35 C124 40.61 124 46.22 124 52 C129.61 52 135.22 52 141 52 C141 57.94 141 63.88 141 70 C146.94 70 152.88 70 159 70 C159 75.94 159 81.88 159 88 C141.51 88 124.02 88 106 88 C106 93.61 106 99.22 106 105 C111.94 105 117.88 105 124 105 C124 116.88 124 128.76 124 141 C112.12 141 100.24 141 88 141 C88 135.06 88 129.12 88 123 C82.39 123 76.78 123 71 123 C71 140.49 71 157.98 71 176 C65.06 176 59.12 176 53 176 C53 170.06 53 164.12 53 158 C47.06 158 41.12 158 35 158 C35 152.39 35 146.78 35 141 C29.39 141 23.78 141 18 141 C18 152.55 18 164.1 18 176 C12.06 176 6.12 176 0 176 C0 170.06 0 164.12 0 158 C-5.94 158 -11.88 158 -18 158 C-18 111.47 -18 64.94 -18 17 C-12.06 17 -6.12 17 0 17 C0 11.39 0 5.78 0 0 Z " fill="#FEFCFB" transform="translate(160,267)"/>
<path d="M0 0 C5.61 0 11.22 0 17 0 C17 12.21 17 24.42 17 37 C11.39 37 5.78 37 0 37 C0 42.94 0 48.88 0 55 C-5.61 55 -11.22 55 -17 55 C-16.96042519 60.54973121 -16.96042519 60.54973121 -16.90991211 66.09936523 C-16.90276909 68.06645974 -16.94968107 70.03353621 -17 72 C-17.33 72.33 -17.66 72.66 -18 73 C-23.28 73 -28.56 73 -34 73 C-34.33 83.56 -34.66 94.12 -35 105 C-23.45 105 -11.9 105 0 105 C0 110.94 0 116.88 0 123 C5.61 123 11.22 123 17 123 C17 170.19 17 217.38 17 266 C11.39 266 5.78 266 0 266 C0 277.88 0 289.76 0 302 C-5.61 302 -11.22 302 -17 302 C-17 307.61 -17 313.22 -17 319 C-22.94 319 -28.88 319 -35 319 C-35 324.61 -35 330.22 -35 336 C-70.64 336 -106.28 336 -143 336 C-143 330.39 -143 324.78 -143 319 C-153.89 319 -164.78 319 -176 319 C-176 324.61 -176 330.22 -176 336 C-211.64 336 -247.28 336 -284 336 C-284 330.39 -284 324.78 -284 319 C-248.69 319 -213.38 319 -177 319 C-177 313.06 -177 307.12 -177 301 C-165.45 301 -153.9 301 -142 301 C-142 306.61 -142 312.22 -142 318 C-107.02 318 -72.04 318 -36 318 C-36 312.39 -36 306.78 -36 301 C-30.06 301 -24.12 301 -18 301 C-18 289.12 -18 277.24 -18 265 C-12.39 265 -6.78 265 -1 265 C-1 218.47 -1 171.94 -1 124 C-6.61 124 -12.22 124 -18 124 C-21.20322328 123.86973093 -24.37018752 123.72744568 -27.5625 123.5 C-30.016875 123.335 -32.47125 123.17 -35 123 C-35 117.39 -35 111.78 -35 106 C-46.55 106 -58.1 106 -70 106 C-70 88.84 -70 71.68 -70 54 C-65.05 54 -60.1 54 -55 54 C-55 59.61 -55 65.22 -55 71 C-48.73 71 -42.46 71 -36 71 C-36 65.39 -36 59.78 -36 54 C-30.06 54 -24.12 54 -18 54 C-18 48.06 -18 42.12 -18 36 C-12.06 36 -6.12 36 0 36 C0 24.12 0 12.24 0 0 Z " fill="#000000" transform="translate(408,142)"/>
<path d="M0 0 C17.49 0 34.98 0 53 0 C53 11.22 53 22.44 53 34 C47.06 34 41.12 34 35 34 C35 39.94 35 45.88 35 52 C40.94 52 46.88 52 53 52 C53 46.39 53 40.78 53 35 C58.94 35 64.88 35 71 35 C71 46.55 71 58.1 71 70 C82.55 70 94.1 70 106 70 C106 81.55 106 93.1 106 105 C71.02 105 36.04 105 0 105 C0 99.39 0 93.78 0 88 C-11.55 88 -23.1 88 -35 88 C-35 70.51 -35 53.02 -35 35 C-29.39 35 -23.78 35 -18 35 C-18 40.94 -18 46.88 -18 53 C-6.12 53 5.76 53 18 53 C18 41.12 18 29.24 18 17 C12.06 17 6.12 17 0 17 C0 11.39 0 5.78 0 0 Z " fill="#FD4900" transform="translate(266,355)"/>
<path d="M0 0 C11.22 0 22.44 0 34 0 C34 5.61 34 11.22 34 17 C51.82 17 69.64 17 88 17 C88 22.94 88 28.88 88 35 C93.61 35 99.22 35 105 35 C105 81.53 105 128.06 105 176 C99.39 176 93.78 176 88 176 C88 164.45 88 152.9 88 141 C82.06 141 76.12 141 70 141 C70 146.61 70 152.22 70 158 C64.06 158 58.12 158 52 158 C52 152.06 52 146.12 52 140 C57.94 140 63.88 140 70 140 C70 122.84 70 105.68 70 88 C64.06 88 58.12 88 52 88 C52 82.06 52 76.12 52 70 C46.39 70 40.78 70 35 70 C35 64.39 35 58.78 35 53 C46.55 53 58.1 53 70 53 C70 47.06 70 41.12 70 35 C35.02 35 0.04 35 -36 35 C-36 29.06 -36 23.12 -36 17 C-24.12 17 -12.24 17 0 17 C0 11.39 0 5.78 0 0 Z " fill="#0D0806" transform="translate(249,249)"/>
<path d="M0 0 C5.61 0 11.22 0 17 0 C17 5.94 17 11.88 17 18 C22.94 18 28.88 18 35 18 C35 29.55 35 41.1 35 53 C41.27 53 47.54 53 54 53 C54 41.45 54 29.9 54 18 C59.28 18 64.56 18 70 18 C70.33 35.16 70.66 52.32 71 70 C88.325 70.495 88.325 70.495 106 71 C106 76.61 106 82.22 106 88 C111.94 88 117.88 88 124 88 C124 93.94 124 99.88 124 106 C106.51 106 89.02 106 71 106 C71 100.06 71 94.12 71 88 C53.51 88 36.02 88 18 88 C18 82.06 18 76.12 18 70 C6.45 70 -5.1 70 -17 70 C-17 52.84 -17 35.68 -17 18 C-11.39 18 -5.78 18 0 18 C0 12.06 0 6.12 0 0 Z " fill="#F7DDC0" transform="translate(266,178)"/>
<path d="M0 0 C24.09 0 48.18 0 73 0 C73 5.61 73 11.22 73 17 C90.49 17 107.98 17 126 17 C126 22.61 126 28.22 126 34 C137.55 34 149.1 34 161 34 C161 39.94 161 45.88 161 52 C172.55 52 184.1 52 196 52 C196 57.94 196 63.88 196 70 C201.94 70 207.88 70 214 70 C214 75.61 214 81.22 214 87 C219.54973121 86.96042519 219.54973121 86.96042519 225.09936523 86.90991211 C227.06645974 86.90276909 229.03353621 86.94968107 231 87 C232 88 232 88 232.09765625 91.81640625 C232.09191138 93.39847047 232.07889593 94.98051031 232.0625 96.5625 C232.041875 99.346875 232.02125 102.13125 232 105 C237.61 105 243.22 105 249 105 C249 110.94 249 116.88 249 123 C243.06 123 237.12 123 231 123 C231 117.39 231 111.78 231 106 C225.06 106 219.12 106 213 106 C213 100.06 213 94.12 213 88 C207.06 88 201.12 88 195 88 C195 82.39 195 76.78 195 71 C183.45 71 171.9 71 160 71 C160 65.06 160 59.12 160 53 C148.45 53 136.9 53 125 53 C125 47.06 125 41.12 125 35 C107.18 35 89.36 35 71 35 C71 29.39 71 23.78 71 18 C47.9 18 24.8 18 1 18 C1 23.61 1 29.22 1 35 C0.67 35 0.34 35 0 35 C0 23.45 0 11.9 0 0 Z " fill="#030303" transform="translate(159,19)"/>
<path d="M0 0 C17.49 0 34.98 0 53 0 C53 11.22 53 22.44 53 34 C47.06 34 41.12 34 35 34 C35 45.88 35 57.76 35 70 C29.39 70 23.78 70 18 70 C18 75.94 18 81.88 18 88 C0.51 88 -16.98 88 -35 88 C-35 70.51 -35 53.02 -35 35 C-29.39 35 -23.78 35 -18 35 C-18 40.94 -18 46.88 -18 53 C-6.12 53 5.76 53 18 53 C18 41.12 18 29.24 18 17 C12.06 17 6.12 17 0 17 C0 11.39 0 5.78 0 0 Z " fill="#FB4800" transform="translate(266,355)"/>
<path d="M0 0 C5.61 0 11.22 0 17 0 C17 5.61 17 11.22 17 17 C22.94 17 28.88 17 35 17 C35 22.94 35 28.88 35 35 C40.61 35 46.22 35 52 35 C52 40.61 52 46.22 52 52 C17.35 52 -17.3 52 -53 52 C-53 46.39 -53 40.78 -53 35 C-47.39 35 -41.78 35 -36 35 C-36 29.06 -36 23.12 -36 17 C-30.06 17 -24.12 17 -18 17 C-18 22.94 -18 28.88 -18 35 C-12.06 35 -6.12 35 0 35 C0 23.45 0 11.9 0 0 Z " fill="#FE4901" transform="translate(178,408)"/>
<path d="M0 0 C5.61 0 11.22 0 17 0 C17 46.53 17 93.06 17 141 C11.39 141 5.78 141 0 141 C0 129.12 0 117.24 0 105 C-5.61 105 -11.22 105 -17 105 C-17 93.78 -17 82.56 -17 71 C-11.39 71 -5.78 71 0 71 C0 47.57 0 24.14 0 0 Z " fill="#010100" transform="translate(337,284)"/>
<path d="M0 0 C34.32 0 68.64 0 104 0 C104 5.61 104 11.22 104 17 C109.94 17 115.88 17 122 17 C122 28.22 122 39.44 122 51 C116.39 51 110.78 51 105 51 C105 45.39 105 39.78 105 34 C99.39 34 93.78 34 88 34 C87.67 28.39 87.34 22.78 87 17 C58.29 16.67 29.58 16.34 0 16 C0 10.72 0 5.44 0 0 Z " fill="#000000" transform="translate(267,126)"/>
<path d="M0 0 C5.61 0 11.22 0 17 0 C17 23.1 17 46.2 17 70 C11.39 70 5.78 70 0 70 C0 64.39 0 58.78 0 53 C-5.94 53 -11.88 53 -18 53 C-18 47.06 -18 41.12 -18 35 C-23.61 35 -29.22 35 -35 35 C-35 29.39 -35 23.78 -35 18 C-23.45 18 -11.9 18 0 18 C0 12.06 0 6.12 0 0 Z " fill="#FE4A02" transform="translate(319,284)"/>
<path d="M0 0 C0.33 0 0.66 0 1 0 C1 5.61 1 11.22 1 17 C6.61 17 12.22 17 18 17 C18 28.55 18 40.1 18 52 C23.94 52 29.88 52 36 52 C36 52.33 36 52.66 36 53 C30.06 53 24.12 53 18 53 C18 58.61 18 64.22 18 70 C11.73 70 5.46 70 -1 70 C-1 64.39 -1 58.78 -1 53 C-5.95 53 -10.9 53 -16 53 C-16 70.16 -16 87.32 -16 105 C-4.45 105 7.1 105 19 105 C19 110.61 19 116.22 19 122 C24.61 122 30.22 122 36 122 C36 122.33 36 122.66 36 123 C30.06 123 24.12 123 18 123 C18 117.39 18 111.78 18 106 C15.48503906 106.01160156 12.97007812 106.02320313 10.37890625 106.03515625 C7.9530449 106.04294673 5.52718493 106.04902354 3.10131836 106.05493164 C1.41055684 106.0599719 -0.28020029 106.06680405 -1.97094727 106.07543945 C-4.39600707 106.08751857 -6.82100944 106.09323123 -9.24609375 106.09765625 C-10.38672523 106.10539818 -10.38672523 106.10539818 -11.55039978 106.11329651 C-13.3673257 106.11349238 -15.18413127 106.06197277 -17 106 C-18 105 -18 105 -18.12025452 102.90562439 C-18.11803391 101.98407059 -18.11581329 101.06251678 -18.11352539 100.11303711 C-18.11344986 99.07203354 -18.11337433 98.03102997 -18.11329651 96.95848083 C-18.10813522 95.8262056 -18.10297394 94.69393036 -18.09765625 93.52734375 C-18.0962413 92.37456436 -18.09482635 91.22178497 -18.09336853 90.03407288 C-18.08775005 86.33518936 -18.07519442 82.63636536 -18.0625 78.9375 C-18.05748738 76.43684983 -18.05292406 73.93619871 -18.04882812 71.43554688 C-18.03777462 65.29034149 -18.0204976 59.14518085 -18 53 C-23.28 53 -28.56 53 -34 53 C-34 64.55 -34 76.1 -34 88 C-40.27 88 -46.54 88 -53 88 C-53 76.45 -53 64.9 -53 53 C-58.94 53 -64.88 53 -71 53 C-71 47.06 -71 41.12 -71 35 C-70.67 35 -70.34 35 -70 35 C-70 40.61 -70 46.22 -70 52 C-64.06 52 -58.12 52 -52 52 C-52 63.55 -52 75.1 -52 87 C-46.39 87 -40.78 87 -35 87 C-35 75.45 -35 63.9 -35 52 C-29.06 52 -23.12 52 -17 52 C-17 40.45 -17 28.9 -17 17 C-11.39 17 -5.78 17 0 17 C0 11.39 0 5.78 0 0 Z " fill="#705343" transform="translate(354,143)"/>
<path d="M0 0 C17.49 0 34.98 0 53 0 C53 11.22 53 22.44 53 34 C47.06 34 41.12 34 35 34 C35 39.94 35 45.88 35 52 C29.39 52 23.78 52 18 52 C18 40.45 18 28.9 18 17 C12.06 17 6.12 17 0 17 C0 11.39 0 5.78 0 0 Z " fill="#FD4901" transform="translate(266,355)"/>
<path d="M0 0 C40.92 0 81.84 0 124 0 C124 5.61 124 11.22 124 17 C129.94 17 135.88 17 142 17 C142 28.88 142 40.76 142 53 C136.06 53 130.12 53 124 53 C124 58.61 124 64.22 124 70 C118.06 70 112.12 70 106 70 C106 64.06 106 58.12 106 52 C111.61 52 117.22 52 123 52 C123 40.78 123 29.56 123 18 C117.06 18 111.12 18 105 18 C105 12.39 105 6.78 105 1 C70.68 1 36.36 1 1 1 C1 6.28 1 11.56 1 17 C29.71 17 58.42 17 88 17 C88 17.33 88 17.66 88 18 C53.35 18 18.7 18 -17 18 C-17 29.55 -17 41.1 -17 53 C-17.33 53 -17.66 53 -18 53 C-18 47.39 -18 41.78 -18 36 C-23.61 36 -29.22 36 -35 36 C-35 41.61 -35 47.22 -35 53 C-40.94 53 -46.88 53 -53 53 C-53 52.67 -53 52.34 -53 52 C-47.39 52 -41.78 52 -36 52 C-36 46.39 -36 40.78 -36 35 C-30.06 35 -24.12 35 -18 35 C-18 29.06 -18 23.12 -18 17 C-12.06 17 -6.12 17 0 17 C0 11.39 0 5.78 0 0 Z " fill="#583B2F" transform="translate(266,125)"/>
<path d="M0 0 C5.94 0 11.88 0 18 0 C18 17.49 18 34.98 18 53 C12.06 53 6.12 53 0 53 C0 47.06 0 41.12 0 35 C-5.61 35 -11.22 35 -17 35 C-17 40.94 -17 46.88 -17 53 C-22.94 53 -28.88 53 -35 53 C-35 47.06 -35 41.12 -35 35 C-29.39 35 -23.78 35 -18 35 C-18 29.06 -18 23.12 -18 17 C-12.06 17 -6.12 17 0 17 C0 11.39 0 5.78 0 0 Z " fill="#FBF8F7" transform="translate(319,390)"/>
<path d="M0 0 C11.55 0 23.1 0 35 0 C35 5.61 35 11.22 35 17 C40.94 17 46.88 17 53 17 C53 22.94 53 28.88 53 35 C35.51 35 18.02 35 0 35 C0 23.45 0 11.9 0 0 Z " fill="#FCFAF9" transform="translate(337,249)"/>
<path d="M0 0 C17.49 0 34.98 0 53 0 C53 5.61 53 11.22 53 17 C47.06 17 41.12 17 35 17 C35 28.55 35 40.1 35 52 C29.39 52 23.78 52 18 52 C18 40.45 18 28.9 18 17 C12.06 17 6.12 17 0 17 C0 11.39 0 5.78 0 0 Z " fill="#030201" transform="translate(284,178)"/>
<path d="M0 0 C5.94 0 11.88 0 18 0 C18 23.1 18 46.2 18 70 C23.94 70 29.88 70 36 70 C36 81.88 36 93.76 36 106 C41.61 106 47.22 106 53 106 C53 111.61 53 117.22 53 123 C47.06 123 41.12 123 35 123 C35 128.94 35 134.88 35 141 C29.39 141 23.78 141 18 141 C18 146.94 18 152.88 18 159 C12.06 159 6.12 159 0 159 C0 158.67 0 158.34 0 158 C5.61 158 11.22 158 17 158 C17 146.12 17 134.24 17 122 C22.94 122 28.88 122 35 122 C35 117.05 35 112.1 35 107 C29.06 107 23.12 107 17 107 C17 72.02 17 37.04 17 1 C11.39 1 5.78 1 0 1 C0 0.67 0 0.34 0 0 Z " fill="#0B0B0B" transform="translate(142,125)"/>
<path d="M0 0 C0.33 0 0.66 0 1 0 C1 58.74 1 117.48 1 178 C-4.61 178 -10.22 178 -16 178 C-16 183.61 -16 189.22 -16 195 C-57.58 195 -99.16 195 -142 195 C-142 189.06 -142 183.12 -142 177 C-141.67 177 -141.34 177 -141 177 C-141 182.61 -141 188.22 -141 194 C-106.02 194 -71.04 194 -35 194 C-35 188.39 -35 182.78 -35 177 C-29.06 177 -23.12 177 -17 177 C-17 165.12 -17 153.24 -17 141 C-11.39 141 -5.78 141 0 141 C0 94.47 0 47.94 0 0 Z " fill="#150600" transform="translate(407,266)"/>
<path d="M0 0 C5.94 0 11.88 0 18 0 C18 5.94 18 11.88 18 18 C23.94 18 29.88 18 36 18 C36 23.94 36 29.88 36 36 C24.12 36 12.24 36 0 36 C0 24.12 0 12.24 0 0 Z " fill="#FBF5F2" transform="translate(354,354)"/>
<path d="M0 0 C5.94 0 11.88 0 18 0 C18 5.94 18 11.88 18 18 C23.94 18 29.88 18 36 18 C36 23.94 36 29.88 36 36 C24.12 36 12.24 36 0 36 C0 24.12 0 12.24 0 0 Z " fill="#FBF5F2" transform="translate(354,301)"/>
<path d="M0 0 C5.94 0 11.88 0 18 0 C18 11.55 18 23.1 18 35 C12.06 35 6.12 35 0 35 C0 23.45 0 11.9 0 0 Z " fill="#0A0604" transform="translate(213,178)"/>
<path d="M0 0 C5.61 0 11.22 0 17 0 C17 11.55 17 23.1 17 35 C11.39 35 5.78 35 0 35 C0 23.45 0 11.9 0 0 Z " fill="#030303" transform="translate(178,302)"/>
<path d="M0 0 C5.61 0 11.22 0 17 0 C17 11.55 17 23.1 17 35 C11.39 35 5.78 35 0 35 C0 23.45 0 11.9 0 0 Z " fill="#050302" transform="translate(231,213)"/>
<path d="M0 0 C5.61 0 11.22 0 17 0 C17 11.55 17 23.1 17 35 C11.39 35 5.78 35 0 35 C0 23.45 0 11.9 0 0 Z " fill="#FCFCFC" transform="translate(390,143)"/>
<path d="M0 0 C17.82 0 35.64 0 54 0 C54 11.55 54 23.1 54 35 C59.61 35 65.22 35 71 35 C71 35.33 71 35.66 71 36 C65.06 36 59.12 36 53 36 C53 30.06 53 24.12 53 18 C47.06 18 41.12 18 35 18 C35 12.39 35 6.78 35 1 C23.45 1 11.9 1 0 1 C0 0.67 0 0.34 0 0 Z " fill="#131313" transform="translate(319,89)"/>
<path d="M0 0 C5.94 0 11.88 0 18 0 C18 0.33 18 0.66 18 1 C12.39 1 6.78 1 1 1 C1 12.55 1 24.1 1 36 C-4.94 36 -10.88 36 -17 36 C-17 30.06 -17 24.12 -17 18 C-11.39 18 -5.78 18 0 18 C0 12.06 0 6.12 0 0 Z " fill="#F1E8E4" transform="translate(301,407)"/>
<path d="M0 0 C5.94 0 11.88 0 18 0 C18 5.94 18 11.88 18 18 C12.06 18 6.12 18 0 18 C0 12.06 0 6.12 0 0 Z " fill="#0E0502" transform="translate(354,425)"/>
<path d="M0 0 C5.94 0 11.88 0 18 0 C18 5.94 18 11.88 18 18 C12.06 18 6.12 18 0 18 C0 12.06 0 6.12 0 0 Z " fill="#0F0805" transform="translate(266,425)"/>
<path d="M0 0 C5.94 0 11.88 0 18 0 C18 5.94 18 11.88 18 18 C12.06 18 6.12 18 0 18 C0 12.06 0 6.12 0 0 Z " fill="#F8F2F0" transform="translate(354,407)"/>
<path d="M0 0 C5.94 0 11.88 0 18 0 C18 5.94 18 11.88 18 18 C12.06 18 6.12 18 0 18 C0 12.06 0 6.12 0 0 Z " fill="#EFD2B5" transform="translate(319,160)"/>
<path d="M0 0 C5.61 0 11.22 0 17 0 C17 5.94 17 11.88 17 18 C11.39 18 5.78 18 0 18 C0 12.06 0 6.12 0 0 Z " fill="#090402" transform="translate(284,407)"/>
<path d="M0 0 C5.61 0 11.22 0 17 0 C17 5.94 17 11.88 17 18 C11.39 18 5.78 18 0 18 C0 12.06 0 6.12 0 0 Z " fill="#0A0A0A" transform="translate(178,266)"/>
<path d="M0 0 C5.94 0 11.88 0 18 0 C18 5.61 18 11.22 18 17 C12.06 17 6.12 17 0 17 C0 11.39 0 5.78 0 0 Z " fill="#F5F5F5" transform="translate(372,178)"/>
<path d="M0 0 C5.61 0 11.22 0 17 0 C17 5.61 17 11.22 17 17 C11.39 17 5.78 17 0 17 C0 11.39 0 5.78 0 0 Z " fill="#030303" transform="translate(302,390)"/>
<path d="M0 0 C5.61 0 11.22 0 17 0 C17 5.61 17 11.22 17 17 C11.39 17 5.78 17 0 17 C0 11.39 0 5.78 0 0 Z " fill="#060606" transform="translate(196,284)"/>
<path d="M0 0 C5.61 0 11.22 0 17 0 C17 5.61 17 11.22 17 17 C11.39 17 5.78 17 0 17 C0 11.39 0 5.78 0 0 Z " fill="#FAFAFA" transform="translate(355,196)"/>
<path d="M0 0 C5.61 0 11.22 0 17 0 C17 5.61 17 11.22 17 17 C11.39 17 5.78 17 0 17 C0 11.39 0 5.78 0 0 Z " fill="#040202" transform="translate(355,178)"/>
<path d="M0 0 C5.61 0 11.22 0 17 0 C17 5.61 17 11.22 17 17 C11.39 17 5.78 17 0 17 C0 11.39 0 5.78 0 0 Z " fill="#FA4800" transform="translate(337,178)"/>
<path d="M0 0 C5.61 0 11.22 0 17 0 C17 5.61 17 11.22 17 17 C11.39 17 5.78 17 0 17 C0 11.39 0 5.78 0 0 Z " fill="#060301" transform="translate(231,161)"/>
<path d="M0 0 C5.61 0 11.22 0 17 0 C17 5.61 17 11.22 17 17 C11.39 17 5.78 17 0 17 C0 11.39 0 5.78 0 0 Z " fill="#050201" transform="translate(249,143)"/>
<path d="M0 0 C5.61 0 11.22 0 17 0 C17 5.61 17 11.22 17 17 C11.39 17 5.78 17 0 17 C0 11.39 0 5.78 0 0 Z " fill="#FAFAFA" transform="translate(372,125)"/>
<path d="M0 0 C5.61 0 11.22 0 17 0 C17 5.61 17 11.22 17 17 C11.39 17 5.78 17 0 17 C0 11.39 0 5.78 0 0 Z " fill="#020202" transform="translate(178,90)"/>
<path d="M0 0 C5.61 0 11.22 0 17 0 C17 5.28 17 10.56 17 16 C11.39 16 5.78 16 0 16 C0 10.72 0 5.44 0 0 Z " fill="#FD4800" transform="translate(355,161)"/>
<path d="M0 0 C5.61 0 11.22 0 17 0 C17 5.28 17 10.56 17 16 C11.39 16 5.78 16 0 16 C0 10.72 0 5.44 0 0 Z " fill="#010000" transform="translate(337,161)"/>
<path d="M0 0 C5.61 0 11.22 0 17 0 C17 5.28 17 10.56 17 16 C11.39 16 5.78 16 0 16 C0 10.72 0 5.44 0 0 Z " fill="#010101" transform="translate(160,108)"/>
<path d="M0 0 C5.61 0 11.22 0 17 0 C17 4.95 17 9.9 17 15 C11.39 15 5.78 15 0 15 C0 10.05 0 5.1 0 0 Z " fill="#000000" transform="translate(177,232)"/>
<path d="M0 0 C0.33 0 0.66 0 1 0 C1 5.61 1 11.22 1 17 C6.28 17 11.56 17 17 17 C17 11.39 17 5.78 17 0 C17.33 0 17.66 0 18 0 C18 5.94 18 11.88 18 18 C12.39 18 6.78 18 1 18 C1 23.61 1 29.22 1 35 C6.61 35 12.22 35 18 35 C18 35.33 18 35.66 18 36 C12.39 36 6.78 36 1 36 C1 47.55 1 59.1 1 71 C0.67 71 0.34 71 0 71 C0 59.45 0 47.9 0 36 C-5.61 36 -11.22 36 -17 36 C-17 47.55 -17 59.1 -17 71 C-17.33 71 -17.66 71 -18 71 C-18 59.12 -18 47.24 -18 35 C-12.06 35 -6.12 35 0 35 C0 23.45 0 11.9 0 0 Z " fill="#989898" transform="translate(195,266)"/>
<path d="M0 0 C5.94 0 11.88 0 18 0 C18 0.33 18 0.66 18 1 C12.39 1 6.78 1 1 1 C1 18.16 1 35.32 1 53 C12.55 53 24.1 53 36 53 C36 58.94 36 64.88 36 71 C35.67 71 35.34 71 35 71 C35 65.39 35 59.78 35 54 C23.78 54 12.56 54 1 54 C1 59.61 1 65.22 1 71 C0.67 71 0.34 71 0 71 C0 65.39 0 59.78 0 54 C-5.61 54 -11.22 54 -17 54 C-17 53.67 -17 53.34 -17 53 C-11.39 53 -5.78 53 0 53 C0 35.51 0 18.02 0 0 Z " fill="#997C69" transform="translate(248,195)"/>
<path d="M0 0 C0.33 0 0.66 0 1 0 C1 5.61 1 11.22 1 17 C6.94 17 12.88 17 19 17 C19 28.88 19 40.76 19 53 C18.67 53 18.34 53 18 53 C18 41.45 18 29.9 18 18 C12.39 18 6.78 18 1 18 C1 29.55 1 41.1 1 53 C-4.94 53 -10.88 53 -17 53 C-17 52.67 -17 52.34 -17 52 C-11.39 52 -5.78 52 0 52 C0 40.78 0 29.56 0 18 C-5.61 18 -11.22 18 -17 18 C-17 17.67 -17 17.34 -17 17 C-11.39 17 -5.78 17 0 17 C0 11.39 0 5.78 0 0 Z " fill="#6A6A6A" transform="translate(389,125)"/>
</svg>
